<mxfile host="app.diagrams.net" modified="2023-04-01T20:11:09.833Z" agent="Mozilla/5.0 (Macintosh; Intel Mac OS X 10_15_7) AppleWebKit/537.36 (KHTML, like Gecko) Chrome/111.0.0.0 Safari/537.36" etag="exPne3oivc5jOSmiOkaR" version="21.1.2" type="google">
  <diagram name="Page-1" id="BCE2OU4Sl7W31KCo3rTn">
    <mxGraphModel grid="1" page="1" gridSize="10" guides="1" tooltips="1" connect="1" arrows="1" fold="1" pageScale="1" pageWidth="827" pageHeight="1169" math="0" shadow="0">
      <root>
        <mxCell id="0" />
        <mxCell id="1" parent="0" />
        <mxCell id="Qf5rXhnkIaSK_ay8ISDB-22" value="" style="rounded=0;whiteSpace=wrap;html=1;strokeWidth=2;" vertex="1" parent="1">
          <mxGeometry x="310" y="280" width="380" height="150" as="geometry" />
        </mxCell>
        <mxCell id="Qf5rXhnkIaSK_ay8ISDB-20" value="&lt;font style=&quot;font-size: 12px;&quot;&gt;in/inout/out parameters&lt;/font&gt;" style="rounded=0;whiteSpace=wrap;html=1;strokeWidth=2;strokeColor=none;" vertex="1" parent="1">
          <mxGeometry x="300" y="230" width="80" height="40" as="geometry" />
        </mxCell>
        <mxCell id="Qf5rXhnkIaSK_ay8ISDB-9" value="&lt;font style=&quot;font-size: 12px;&quot;&gt;directionless parameters&lt;/font&gt;" style="rounded=0;whiteSpace=wrap;html=1;strokeWidth=2;strokeColor=none;" vertex="1" parent="1">
          <mxGeometry x="450" y="230" width="80" height="40" as="geometry" />
        </mxCell>
        <mxCell id="Qf5rXhnkIaSK_ay8ISDB-2" value="&lt;font style=&quot;font-size: 18px;&quot;&gt;action code&lt;/font&gt;" style="rounded=0;whiteSpace=wrap;html=1;strokeWidth=2;" vertex="1" parent="1">
          <mxGeometry x="320" y="290" width="160" height="130" as="geometry" />
        </mxCell>
        <mxCell id="Qf5rXhnkIaSK_ay8ISDB-3" value="" style="shape=flexArrow;endArrow=classic;html=1;rounded=0;fillColor=#66B2FF;strokeWidth=2;endWidth=14.285714285714286;endSize=4.714285714285714;width=20;" edge="1" parent="1">
          <mxGeometry width="50" height="50" relative="1" as="geometry">
            <mxPoint x="490" y="320" as="sourcePoint" />
            <mxPoint x="450" y="320" as="targetPoint" />
            <Array as="points" />
          </mxGeometry>
        </mxCell>
        <mxCell id="Qf5rXhnkIaSK_ay8ISDB-4" value="&lt;font style=&quot;font-size: 14px;&quot;&gt;action data (read-only from data plane)&lt;/font&gt;" style="rounded=0;whiteSpace=wrap;html=1;strokeWidth=2;" vertex="1" parent="1">
          <mxGeometry x="490" y="290" width="100" height="60" as="geometry" />
        </mxCell>
        <mxCell id="Qf5rXhnkIaSK_ay8ISDB-5" value="&lt;font style=&quot;font-size: 14px;&quot;&gt;action data (writable from data plane)&lt;/font&gt;" style="rounded=0;whiteSpace=wrap;html=1;strokeWidth=2;" vertex="1" parent="1">
          <mxGeometry x="580" y="360" width="100" height="60" as="geometry" />
        </mxCell>
        <mxCell id="Qf5rXhnkIaSK_ay8ISDB-7" value="" style="shape=flexArrow;endArrow=classic;html=1;rounded=0;fillColor=#66B2FF;strokeWidth=2;endWidth=18.285714285714285;endSize=5.902857142857143;width=20;entryX=0.5;entryY=0;entryDx=0;entryDy=0;exitX=0.306;exitY=1.086;exitDx=0;exitDy=0;exitPerimeter=0;" edge="1" parent="1" source="Qf5rXhnkIaSK_ay8ISDB-8" target="Qf5rXhnkIaSK_ay8ISDB-4">
          <mxGeometry width="50" height="50" relative="1" as="geometry">
            <mxPoint x="540" y="240" as="sourcePoint" />
            <mxPoint x="460" y="330" as="targetPoint" />
            <Array as="points" />
          </mxGeometry>
        </mxCell>
        <mxCell id="Qf5rXhnkIaSK_ay8ISDB-8" value="&lt;font style=&quot;font-size: 18px;&quot;&gt;control plane&lt;/font&gt;" style="rounded=0;whiteSpace=wrap;html=1;strokeWidth=2;strokeColor=none;" vertex="1" parent="1">
          <mxGeometry x="480" y="190" width="200" height="30" as="geometry" />
        </mxCell>
        <mxCell id="Qf5rXhnkIaSK_ay8ISDB-14" value="" style="shape=flexArrow;endArrow=classic;startArrow=classic;html=1;rounded=0;fillColor=#66B2FF;strokeWidth=2;endWidth=14.285714285714286;endSize=4.714285714285714;startWidth=14.285714285714286;startSize=4.714285714285714;width=20;exitX=0;exitY=0.5;exitDx=0;exitDy=0;" edge="1" parent="1" source="Qf5rXhnkIaSK_ay8ISDB-5">
          <mxGeometry width="50" height="50" relative="1" as="geometry">
            <mxPoint x="490" y="380" as="sourcePoint" />
            <mxPoint x="450" y="390" as="targetPoint" />
            <Array as="points" />
          </mxGeometry>
        </mxCell>
        <mxCell id="Qf5rXhnkIaSK_ay8ISDB-16" value="&lt;font style=&quot;font-size: 12px;&quot;&gt;parameters declared &#39;rmw&#39;&lt;/font&gt;" style="rounded=0;whiteSpace=wrap;html=1;strokeWidth=2;strokeColor=none;" vertex="1" parent="1">
          <mxGeometry x="640" y="220" width="70" height="60" as="geometry" />
        </mxCell>
        <mxCell id="Qf5rXhnkIaSK_ay8ISDB-17" value="" style="shape=flexArrow;endArrow=classic;html=1;rounded=0;fillColor=#66B2FF;strokeWidth=2;endWidth=18.285714285714285;endSize=5.902857142857143;width=20;entryX=0.5;entryY=0;entryDx=0;entryDy=0;exitX=0.75;exitY=1;exitDx=0;exitDy=0;" edge="1" parent="1" source="Qf5rXhnkIaSK_ay8ISDB-8" target="Qf5rXhnkIaSK_ay8ISDB-5">
          <mxGeometry width="50" height="50" relative="1" as="geometry">
            <mxPoint x="621" y="226.5" as="sourcePoint" />
            <mxPoint x="620" y="293.5" as="targetPoint" />
            <Array as="points" />
          </mxGeometry>
        </mxCell>
        <mxCell id="Qf5rXhnkIaSK_ay8ISDB-18" value="" style="shape=flexArrow;endArrow=classic;startArrow=classic;html=1;rounded=0;fillColor=#66B2FF;strokeWidth=2;endWidth=14.285714285714286;endSize=4.714285714285714;startWidth=14.285714285714286;startSize=4.714285714285714;width=20;" edge="1" parent="1" target="Qf5rXhnkIaSK_ay8ISDB-2">
          <mxGeometry width="50" height="50" relative="1" as="geometry">
            <mxPoint x="400" y="220" as="sourcePoint" />
            <mxPoint x="460" y="400" as="targetPoint" />
            <Array as="points" />
          </mxGeometry>
        </mxCell>
        <mxCell id="Qf5rXhnkIaSK_ay8ISDB-19" value="&lt;font style=&quot;font-size: 18px;&quot;&gt;data plane&lt;/font&gt;" style="rounded=0;whiteSpace=wrap;html=1;strokeWidth=2;strokeColor=none;" vertex="1" parent="1">
          <mxGeometry x="340" y="190" width="120" height="30" as="geometry" />
        </mxCell>
        <mxCell id="Qf5rXhnkIaSK_ay8ISDB-23" value="&lt;font style=&quot;font-size: 18px;&quot;&gt;action&lt;/font&gt;" style="rounded=0;whiteSpace=wrap;html=1;strokeWidth=2;strokeColor=none;" vertex="1" parent="1">
          <mxGeometry x="240" y="340" width="60" height="30" as="geometry" />
        </mxCell>
      </root>
    </mxGraphModel>
  </diagram>
</mxfile>
